<?xml version="1.0" encoding="UTF-8"?>
<svg xmlns="http://www.w3.org/2000/svg" xmlns:xlink="http://www.w3.org/1999/xlink" width="20pt" height="20pt" viewBox="0 0 20 20" version="1.1">
<defs>
<linearGradient id="linear0" gradientUnits="userSpaceOnUse" x1="2593.0557" y1="881.36176" x2="2727.9114" y2="1265.8795" gradientTransform="matrix(0.0498016,0,0,0.0455288,-116.063854,-31.441572)">
<stop offset="0" style="stop-color:rgb(100%,33.333333%,33.333333%);stop-opacity:1;"/>
<stop offset="1" style="stop-color:rgb(98.039216%,91.372549%,48.235294%);stop-opacity:1;"/>
</linearGradient>
</defs>
<g id="surface1">
<path style=" stroke:none;fill-rule:evenodd;fill:rgb(0%,0%,0%);fill-opacity:1;" d="M 9.953125 0.109375 C 9.714844 0.09375 9.34375 0.269531 9.207031 0.472656 C 8.917969 0.894531 8.894531 1.3125 8.886719 1.65625 C 8.882812 2.003906 8.917969 2.316406 8.921875 2.441406 C 8.921875 2.460938 8.925781 2.480469 8.925781 2.5 C 8.96875 2.828125 9.09375 3.144531 9.316406 3.371094 C 9.539062 3.601562 9.820312 3.707031 10.042969 3.746094 C 10.265625 3.785156 10.449219 3.773438 10.574219 3.761719 C 10.703125 3.753906 10.828125 3.761719 10.679688 3.746094 L 10.3125 2.375 C 10.371094 2.335938 10.554688 2.261719 10.554688 2.261719 C 10.554688 2.261719 10.914062 2.253906 10.914062 2.253906 C 10.914062 2.253906 11.207031 2.390625 11.207031 2.390625 C 11.207031 2.390625 11.328125 2.496094 11.359375 2.542969 C 11.492188 2.722656 11.480469 2.78125 11.488281 2.828125 C 11.511719 2.917969 11.503906 2.929688 11.507812 2.945312 C 11.507812 2.972656 11.507812 2.964844 11.507812 2.957031 C 11.507812 2.933594 11.507812 2.882812 11.511719 2.820312 C 11.515625 2.691406 11.515625 2.507812 11.511719 2.296875 C 11.503906 1.875 11.488281 1.367188 11.265625 0.855469 C 11.113281 0.503906 10.699219 0.328125 10.53125 0.300781 C 10.488281 0.296875 10.480469 0.292969 10.453125 0.289062 C 10.386719 0.238281 10.292969 0.128906 9.953125 0.109375 Z M 9.953125 0.109375 "/>
<path style=" stroke:none;fill-rule:evenodd;fill:rgb(0%,0%,0%);fill-opacity:1;" d="M 9.78125 1.5 C 7.285156 1.523438 5.496094 2.621094 4.445312 4.113281 C 3.394531 5.601562 3.015625 7.410156 2.917969 9.003906 C 2.808594 10.816406 3.546875 13.261719 4.625 15.453125 C 5.164062 16.546875 5.789062 17.5625 6.503906 18.363281 C 7.214844 19.160156 8.027344 19.796875 9.050781 19.875 C 11.558594 20.070312 13.554688 18.597656 14.851562 16.714844 C 16.148438 14.832031 16.871094 12.507812 17.0625 10.511719 C 17.226562 8.777344 16.695312 6.828125 15.820312 5.167969 C 14.945312 3.507812 13.746094 2.058594 12.097656 1.734375 C 11.265625 1.570312 10.492188 1.492188 9.78125 1.5 Z M 9.78125 1.5 "/>
<path style=" stroke:none;fill-rule:evenodd;fill:url(#linear0);" d="M 11.925781 2.613281 C 5.671875 1.386719 4.019531 5.660156 3.816406 9.058594 C 3.636719 12.023438 6.53125 18.78125 9.117188 18.980469 C 13.390625 19.308594 15.8125 14.105469 16.167969 10.425781 C 16.449219 7.476562 14.253906 3.074219 11.925781 2.613281 Z M 11.925781 2.613281 "/>
<path style=" stroke:none;fill-rule:evenodd;fill:rgb(62.745098%,31.372549%,9.411765%);fill-opacity:1;" d="M 9.679688 2.40625 C 9.664062 2.050781 9.554688 1.308594 9.832031 0.902344 C 9.914062 0.78125 10.078125 0.976562 10.199219 1.015625 C 10.324219 1.058594 10.507812 1.011719 10.570312 1.15625 C 10.84375 1.78125 10.730469 3.007812 10.753906 2.992188 C 10.546875 2.972656 9.78125 3.230469 9.679688 2.40625 Z M 9.679688 2.40625 "/>
<path style=" stroke:none;fill-rule:evenodd;fill:rgb(0%,0%,0%);fill-opacity:1;" d="M 6.207031 6.648438 C 6.351562 6.671875 6.191406 7.96875 6.289062 9.832031 C 6.332031 10.683594 6.449219 11.660156 6.738281 12.640625 C 6.742188 12.652344 6.746094 12.660156 6.746094 12.671875 C 7.035156 13.640625 7.460938 14.476562 7.925781 15.175781 C 8.964844 16.742188 10.058594 17.5625 9.96875 17.683594 C 9.921875 17.746094 8.628906 17.222656 7.363281 15.578125 C 6.808594 14.855469 6.316406 13.953125 6 12.894531 C 5.996094 12.882812 5.992188 12.875 5.988281 12.863281 C 5.675781 11.789062 5.589844 10.738281 5.605469 9.839844 C 5.640625 7.875 6.105469 6.632812 6.207031 6.648438 Z M 6.207031 6.648438 "/>
</g>
</svg>
