<?xml version="1.0" encoding="UTF-8"?>
<svg xmlns="http://www.w3.org/2000/svg" xmlns:xlink="http://www.w3.org/1999/xlink" width="20pt" height="20pt" viewBox="0 0 20 20" version="1.1">
<g id="surface1">
<path style=" stroke:none;fill-rule:evenodd;fill:rgb(0%,0%,0%);fill-opacity:1;" d="M 12.695312 16.589844 C 12.675781 16.589844 12.65625 16.589844 12.636719 16.589844 L 9.847656 16.746094 C 9.585938 16.757812 9.34375 16.882812 9.183594 17.089844 C 9.023438 17.292969 8.957031 17.554688 9.003906 17.8125 C 9.003906 17.8125 9.054688 18.109375 9.171875 18.453125 C 9.292969 18.796875 9.386719 19.257812 10.007812 19.621094 C 10.328125 19.804688 10.695312 19.960938 11.121094 19.976562 C 11.546875 19.992188 11.980469 19.847656 12.335938 19.617188 C 12.871094 19.265625 13.070312 18.828125 13.253906 18.46875 C 13.433594 18.113281 13.542969 17.800781 13.542969 17.800781 C 13.640625 17.523438 13.601562 17.21875 13.429688 16.976562 C 13.261719 16.738281 12.988281 16.59375 12.695312 16.589844 Z M 12.695312 16.589844 "/>
<path style=" stroke:none;fill-rule:evenodd;fill:rgb(0%,0%,0%);fill-opacity:1;" d="M 11.015625 2.734375 C 10.820312 2.726562 10.625 2.730469 10.425781 2.753906 C 8.546875 2.960938 7.183594 4.058594 6.324219 5.394531 C 5.464844 6.730469 5.023438 8.304688 4.71875 9.730469 C 3.960938 13.25 5.890625 16.683594 8.691406 18.246094 C 10.199219 19.082031 11.933594 18.941406 13.378906 18.332031 C 14.824219 17.722656 16.058594 16.660156 16.699219 15.355469 C 17.808594 13.101562 17.710938 10.375 16.964844 8.101562 C 16.558594 6.875 15.78125 5.617188 14.765625 4.601562 C 13.75 3.585938 12.46875 2.789062 11.015625 2.734375 Z M 11.015625 2.734375 "/>
<path style=" stroke:none;fill-rule:evenodd;fill:rgb(95.294118%,80.392157%,21.176471%);fill-opacity:1;" d="M 9.894531 17.652344 C 9.894531 17.652344 10.066406 18.605469 10.464844 18.835938 C 10.953125 19.121094 11.363281 19.167969 11.835938 18.855469 C 12.320312 18.539062 12.6875 17.496094 12.6875 17.496094 Z M 9.894531 17.652344 "/>
<path style=" stroke:none;fill-rule:evenodd;fill:rgb(0%,0%,0%);fill-opacity:1;" d="M 10.746094 0.0234375 C 10.207031 0.0234375 9.71875 0.515625 9.730469 1.054688 C 9.746094 2.050781 9.832031 2.992188 9.746094 3.773438 C 9.746094 3.777344 9.746094 3.777344 9.746094 3.777344 C 9.683594 4.359375 10.21875 4.929688 10.804688 4.902344 L 11.253906 4.878906 C 11.792969 4.855469 12.257812 4.328125 12.214844 3.785156 C 12.144531 2.882812 12.097656 1.988281 11.992188 1.058594 C 11.957031 0.734375 11.757812 0.433594 11.472656 0.277344 L 11.230469 0.148438 C 11.085938 0.0664062 10.914062 0.0234375 10.746094 0.0234375 Z M 10.746094 0.0234375 "/>
<path style=" stroke:none;fill-rule:evenodd;fill:rgb(0%,0%,0%);fill-opacity:1;" d="M 8.617188 1.109375 C 8.058594 1.085938 7.433594 1.175781 6.777344 1.433594 C 5.558594 1.910156 4.691406 3.027344 3.929688 4.023438 C 3.164062 5.015625 2.609375 5.925781 2.609375 5.925781 C 2.375 6.3125 2.441406 6.8125 2.773438 7.121094 C 3.105469 7.429688 3.609375 7.464844 3.976562 7.203125 C 3.886719 7.273438 3.878906 7.25 3.949219 7.234375 C 4.042969 7.210938 4.21875 7.175781 4.429688 7.144531 C 4.855469 7.078125 5.445312 7.003906 6.078125 6.914062 C 7.347656 6.734375 8.738281 6.566406 9.789062 5.933594 C 10.554688 5.476562 10.917969 4.773438 11.167969 4.214844 C 11.421875 3.65625 11.535156 3.171875 11.535156 3.171875 C 11.609375 2.863281 11.523438 2.539062 11.3125 2.304688 C 11.3125 2.304688 10.292969 1.1875 8.617188 1.109375 Z M 8.617188 1.109375 "/>
<path style=" stroke:none;fill-rule:evenodd;fill:rgb(100%,86.666667%,33.333333%);fill-opacity:1;" d="M 10.527344 3.644531 C 7.320312 4 6.1875 7.164062 5.597656 9.917969 C 4.933594 13.003906 6.671875 16.089844 9.128906 17.460938 C 11.550781 18.808594 14.855469 17.0625 15.894531 14.960938 C 16.863281 12.996094 16.796875 10.464844 16.109375 8.382812 C 15.363281 6.105469 12.945312 3.378906 10.527344 3.644531 Z M 10.527344 3.644531 "/>
<path style=" stroke:none;fill-rule:evenodd;fill:rgb(8.627451%,31.372549%,8.627451%);fill-opacity:1;" d="M 10.746094 0.804688 C 10.683594 0.804688 10.621094 0.828125 10.578125 0.875 C 10.535156 0.917969 10.507812 0.976562 10.511719 1.042969 C 10.527344 1.996094 10.625 2.960938 10.523438 3.863281 C 10.515625 3.929688 10.539062 3.996094 10.585938 4.046875 C 10.632812 4.097656 10.699219 4.125 10.765625 4.121094 L 11.214844 4.097656 C 11.277344 4.097656 11.335938 4.066406 11.378906 4.019531 C 11.417969 3.972656 11.441406 3.910156 11.4375 3.847656 C 11.363281 2.929688 11.316406 2.046875 11.214844 1.144531 C 11.207031 1.066406 11.164062 1 11.097656 0.964844 L 10.855469 0.832031 C 10.824219 0.8125 10.785156 0.804688 10.746094 0.804688 Z M 10.746094 0.804688 "/>
<path style=" stroke:none;fill-rule:evenodd;fill:rgb(0%,0%,0%);fill-opacity:1;" d="M 7.613281 7.722656 C 7.710938 7.738281 7.671875 8.316406 7.664062 9.238281 C 7.652344 10.144531 7.671875 11.445312 8.058594 12.730469 C 8.058594 12.742188 8.0625 12.75 8.066406 12.757812 C 8.308594 13.566406 8.660156 14.265625 9.046875 14.847656 C 9.917969 16.160156 10.832031 16.84375 10.757812 16.945312 C 10.71875 17 9.636719 16.558594 8.582031 15.183594 C 8.117188 14.582031 7.703125 13.828125 7.441406 12.945312 C 7.4375 12.933594 7.433594 12.925781 7.433594 12.917969 C 7.019531 11.5 7.074219 10.132812 7.199219 9.207031 C 7.332031 8.261719 7.535156 7.710938 7.613281 7.722656 Z M 7.613281 7.722656 "/>
<path style=" stroke:none;fill-rule:evenodd;fill:rgb(35.294118%,62.745098%,17.254902%);fill-opacity:1;" d="M 10.546875 2.960938 C 10.546875 2.960938 10.160156 4.578125 9.242188 5.128906 C 7.785156 6 3.710938 6.101562 3.367188 6.441406 C 3.367188 6.441406 5.496094 2.953125 7.066406 2.335938 C 9.214844 1.496094 10.546875 2.960938 10.546875 2.960938 Z M 10.546875 2.960938 "/>
</g>
</svg>
