<?xml version="1.0" encoding="UTF-8"?>
<svg xmlns="http://www.w3.org/2000/svg" xmlns:xlink="http://www.w3.org/1999/xlink" width="20pt" height="20pt" viewBox="0 0 20 20" version="1.1">
<g id="surface1">
<path style=" stroke:none;fill-rule:evenodd;fill:rgb(0%,0%,0%);fill-opacity:1;" d="M 13.210938 0.429688 C 13.003906 0.425781 12.804688 0.488281 12.640625 0.609375 C 12.179688 0.957031 11.507812 1.203125 10.933594 1.890625 C 10.359375 2.578125 10.113281 3.601562 10.304688 5.132812 C 10.335938 5.410156 10.519531 5.652344 10.789062 5.777344 C 11.277344 6 11.773438 6.046875 12.226562 6.003906 C 12.675781 5.960938 13.125 5.925781 13.519531 5.398438 C 13.71875 5.136719 13.734375 4.785156 13.5625 4.507812 C 13.160156 3.867188 13.171875 3.628906 13.269531 3.253906 C 13.371094 2.878906 13.691406 2.339844 14.007812 1.539062 C 14.105469 1.292969 14.070312 1.011719 13.910156 0.792969 C 13.753906 0.570312 13.492188 0.4375 13.210938 0.429688 Z M 13.210938 0.429688 "/>
<path style=" stroke:none;fill-rule:evenodd;fill:rgb(0%,0%,0%);fill-opacity:1;" d="M 7.511719 0.558594 C 7.21875 0.570312 6.949219 0.714844 6.789062 0.945312 C 6.628906 1.175781 6.597656 1.46875 6.703125 1.726562 C 7.015625 2.484375 7.3125 3.015625 7.402344 3.390625 C 7.492188 3.765625 7.492188 4.003906 7.105469 4.609375 C 6.957031 4.835938 6.929688 5.113281 7.03125 5.363281 C 7.132812 5.609375 7.347656 5.800781 7.621094 5.878906 C 7.582031 5.867188 7.800781 6.015625 8.253906 6.105469 C 8.710938 6.195312 9.242188 6.140625 9.964844 5.917969 C 10.304688 5.816406 10.546875 5.539062 10.589844 5.207031 C 10.78125 3.710938 10.484375 2.664062 9.871094 1.984375 C 9.253906 1.308594 8.558594 1.058594 8.109375 0.734375 C 7.9375 0.609375 7.726562 0.546875 7.511719 0.558594 Z M 7.511719 0.558594 "/>
<path style=" stroke:none;fill-rule:evenodd;fill:rgb(0%,0%,0%);fill-opacity:1;" d="M 10.25 0.0820312 C 9.882812 0.0898438 9.554688 0.304688 9.417969 0.628906 C 8.730469 2.253906 8.722656 3.757812 8.542969 5.085938 C 8.492188 5.464844 8.710938 5.832031 9.085938 5.988281 C 9.941406 6.339844 10.902344 6.304688 11.75 5.976562 C 12.195312 5.800781 12.421875 5.332031 12.269531 4.902344 C 12.070312 4.34375 12.023438 3.679688 11.914062 2.921875 C 11.808594 2.160156 11.621094 1.289062 11.03125 0.464844 C 10.859375 0.222656 10.5625 0.078125 10.25 0.0820312 Z M 10.25 0.0820312 "/>
<path style=" stroke:none;fill-rule:evenodd;fill:rgb(95.294118%,26.666667%,26.666667%);fill-opacity:1;" d="M 17.757812 11.105469 C 17.398438 5.753906 12.738281 4.953125 12.738281 4.953125 L 7.867188 4.71875 C 7.867188 4.71875 2.605469 5.542969 2.242188 11.210938 C 1.984375 15.238281 5.148438 18.820312 10.039062 19.027344 C 14.96875 19.234375 18.011719 14.890625 17.757812 11.105469 Z M 17.757812 11.105469 "/>
<path style=" stroke:none;fill-rule:evenodd;fill:rgb(0%,0%,0%);fill-opacity:1;" d="M 7.824219 3.835938 C 7.785156 3.839844 7.75 3.84375 7.714844 3.847656 C 7.714844 3.847656 6.1875 4.085938 4.648438 5.121094 C 3.109375 6.15625 1.503906 8.070312 1.304688 11.15625 C 1.019531 15.648438 4.640625 19.683594 10 19.910156 C 12.761719 20.027344 15.0625 18.839844 16.566406 17.125 C 18.066406 15.414062 18.835938 13.1875 18.691406 11.050781 C 18.496094 8.136719 17.066406 6.316406 15.679688 5.320312 C 14.296875 4.328125 12.90625 4.085938 12.90625 4.085938 C 12.867188 4.078125 12.828125 4.074219 12.789062 4.074219 L 7.917969 3.835938 C 7.886719 3.835938 7.855469 3.835938 7.824219 3.835938 Z M 7.824219 3.835938 "/>
<path style=" stroke:none;fill-rule:evenodd;fill:rgb(95.294118%,26.666667%,26.666667%);fill-opacity:1;" d="M 17.757812 11.105469 C 17.398438 5.753906 12.738281 4.953125 12.738281 4.953125 L 7.867188 4.71875 C 7.867188 4.71875 2.605469 5.542969 2.242188 11.210938 C 1.984375 15.238281 5.148438 18.820312 10.039062 19.027344 C 14.96875 19.234375 18.011719 14.890625 17.757812 11.105469 Z M 17.757812 11.105469 "/>
<path style=" stroke:none;fill-rule:evenodd;fill:rgb(78.431373%,21.568627%,21.568627%);fill-opacity:1;" d="M 11.171875 5.035156 C 10.820312 2.199219 12.046875 2.109375 13.1875 1.253906 C 12.613281 2.703125 11.847656 3.386719 12.804688 4.921875 C 12.605469 5.191406 11.769531 5.3125 11.171875 5.035156 Z M 11.171875 5.035156 "/>
<path style=" stroke:none;fill-rule:evenodd;fill:rgb(78.431373%,21.568627%,21.568627%);fill-opacity:1;" d="M 9.683594 5.101562 C 10.035156 2.371094 8.695312 2.238281 7.554688 1.414062 C 8.128906 2.8125 8.839844 3.574219 7.882812 5.054688 C 8.253906 5.160156 8.402344 5.496094 9.683594 5.101562 Z M 9.683594 5.101562 "/>
<path style=" stroke:none;fill-rule:evenodd;fill:rgb(78.431373%,21.568627%,21.568627%);fill-opacity:1;" d="M 9.453125 5.195312 C 9.640625 3.800781 9.65625 2.398438 10.269531 0.949219 C 11.21875 2.273438 10.90625 3.777344 11.398438 5.175781 C 10.769531 5.417969 10.039062 5.433594 9.453125 5.195312 Z M 9.453125 5.195312 "/>
<path style=" stroke:none;fill-rule:evenodd;fill:rgb(0%,0%,0%);fill-opacity:1;" d="M 5.027344 7.734375 C 5.121094 7.773438 4.9375 8.351562 4.761719 9.308594 C 4.585938 10.25 4.421875 11.589844 4.730469 12.980469 C 4.734375 13 4.738281 13.015625 4.742188 13.035156 C 4.9375 13.902344 5.285156 14.648438 5.695312 15.257812 C 6.621094 16.632812 7.699219 17.25 7.632812 17.355469 C 7.613281 17.390625 6.382812 17.082031 5.234375 15.59375 C 4.738281 14.953125 4.324219 14.136719 4.109375 13.175781 C 4.105469 13.15625 4.101562 13.136719 4.097656 13.117188 C 3.769531 11.574219 4.019531 10.152344 4.316406 9.195312 C 4.617188 8.226562 4.960938 7.707031 5.027344 7.734375 Z M 5.027344 7.734375 "/>
</g>
</svg>
