<?xml version="1.0" encoding="UTF-8"?>
<svg xmlns="http://www.w3.org/2000/svg" xmlns:xlink="http://www.w3.org/1999/xlink" width="20pt" height="20pt" viewBox="0 0 20 20" version="1.1">
<g id="surface1">
<path style=" stroke:none;fill-rule:evenodd;fill:rgb(0%,0%,0%);fill-opacity:1;" d="M 10.082031 0.0585938 C 9.707031 0.0546875 9.371094 0.300781 9.269531 0.667969 C 8.964844 1.742188 8.609375 2.339844 8.355469 3.136719 C 8.328125 3.222656 8.316406 3.320312 8.292969 3.410156 C 8.097656 3.160156 7.90625 2.878906 7.726562 2.527344 C 7.554688 2.191406 7.175781 2.015625 6.808594 2.09375 C 6.441406 2.175781 6.171875 2.492188 6.15625 2.871094 C 6.023438 5.960938 7.691406 7.933594 9.417969 9.511719 C 9.753906 9.816406 10.269531 9.796875 10.582031 9.46875 C 11.761719 8.230469 12.558594 7.316406 13.058594 6.289062 C 13.554688 5.257812 13.691406 4.160156 13.621094 2.78125 C 13.601562 2.410156 13.339844 2.101562 12.984375 2.015625 C 12.625 1.929688 12.253906 2.089844 12.070312 2.410156 C 11.867188 2.765625 11.707031 3.011719 11.539062 3.285156 C 11.328125 2.515625 11.046875 1.800781 10.890625 0.765625 C 10.828125 0.367188 10.488281 0.0664062 10.082031 0.0585938 Z M 10.082031 0.0585938 "/>
<path style=" stroke:none;fill-rule:evenodd;fill:rgb(0%,0%,0%);fill-opacity:1;" d="M 9.914062 5.113281 C 7.746094 5.191406 5.558594 5.84375 4.257812 7.367188 C 3.453125 8.308594 3.324219 9.542969 3.488281 10.695312 C 3.65625 11.84375 4.097656 12.992188 4.613281 14.058594 C 5.644531 16.1875 6.976562 17.957031 7.199219 18.25 C 7.78125 19.011719 8.5625 19.753906 9.667969 19.914062 C 10.769531 20.074219 11.953125 19.488281 12.921875 18.261719 C 13.117188 18.015625 13.460938 17.511719 13.933594 16.730469 C 14.410156 15.949219 14.972656 14.9375 15.453125 13.839844 C 15.933594 12.742188 16.339844 11.5625 16.472656 10.398438 C 16.605469 9.230469 16.457031 8 15.644531 7.066406 C 14.3125 5.527344 12.078125 5.035156 9.914062 5.113281 Z M 9.914062 5.113281 "/>
<path style=" stroke:none;fill-rule:evenodd;fill:rgb(0%,0%,0%);fill-opacity:1;" d="M 12.597656 2.519531 C 12.296875 2.523438 12.019531 2.671875 11.851562 2.917969 C 10.484375 4.953125 10.945312 7.078125 11.578125 8.839844 C 11.730469 9.265625 12.179688 9.515625 12.621094 9.417969 C 13.953125 9.125 14.898438 8.882812 15.710938 8.402344 C 16.519531 7.925781 17.09375 7.210938 17.59375 6.265625 C 17.777344 5.917969 17.714844 5.492188 17.441406 5.214844 C 17.167969 4.933594 16.742188 4.859375 16.390625 5.035156 C 16.25 5.105469 16.15625 5.140625 16.035156 5.199219 C 16.132812 4.75 16.226562 4.304688 16.433594 3.777344 C 16.585938 3.390625 16.449219 2.949219 16.109375 2.707031 C 15.765625 2.46875 15.304688 2.496094 14.992188 2.769531 C 14.445312 3.253906 14.011719 3.488281 13.539062 3.847656 C 13.527344 3.714844 13.503906 3.597656 13.507812 3.445312 C 13.511719 3.199219 13.417969 2.964844 13.246094 2.789062 C 13.074219 2.617188 12.839844 2.519531 12.597656 2.519531 Z M 12.597656 2.519531 "/>
<path style=" stroke:none;fill-rule:evenodd;fill:rgb(67.058824%,78.431373%,21.568627%);fill-opacity:1;" d="M 12.429688 8.535156 C 15.046875 7.960938 15.878906 7.578125 16.792969 5.84375 C 15.859375 6.308594 15.371094 6.535156 14.027344 6.929688 C 15.292969 6.109375 14.925781 5.136719 15.589844 3.449219 C 14.226562 4.652344 13.476562 4.488281 13.023438 6.347656 C 13.171875 5.507812 12.574219 4.804688 12.601562 3.425781 C 11.4375 5.160156 11.820312 6.835938 12.429688 8.535156 Z M 12.429688 8.535156 "/>
<path style=" stroke:none;fill-rule:evenodd;fill:rgb(0%,0%,0%);fill-opacity:1;" d="M 7.316406 2.742188 C 6.851562 2.753906 6.484375 3.136719 6.492188 3.601562 C 6.496094 3.796875 6.472656 3.957031 6.449219 4.121094 C 5.949219 3.722656 5.492188 3.496094 4.90625 2.976562 C 4.613281 2.71875 4.183594 2.695312 3.863281 2.917969 C 3.546875 3.140625 3.421875 3.554688 3.5625 3.917969 C 3.789062 4.496094 3.882812 4.976562 3.992188 5.46875 C 3.835938 5.394531 3.707031 5.34375 3.519531 5.25 C 3.191406 5.085938 2.796875 5.152344 2.539062 5.414062 C 2.285156 5.679688 2.226562 6.074219 2.398438 6.398438 C 2.894531 7.335938 3.460938 8.039062 4.261719 8.511719 C 5.058594 8.984375 6 9.226562 7.328125 9.515625 C 7.742188 9.609375 8.160156 9.378906 8.304688 8.980469 C 8.933594 7.222656 9.390625 5.128906 8.035156 3.113281 C 7.875 2.875 7.605469 2.734375 7.316406 2.742188 Z M 7.316406 2.742188 "/>
<path style=" stroke:none;fill-rule:evenodd;fill:rgb(67.058824%,78.431373%,21.568627%);fill-opacity:1;" d="M 7.507812 8.695312 C 4.890625 8.121094 4.0625 7.738281 3.144531 6.003906 C 4.082031 6.46875 4.566406 6.695312 5.910156 7.089844 C 4.648438 6.269531 5.011719 5.296875 4.347656 3.609375 C 5.710938 4.8125 6.460938 4.648438 6.914062 6.507812 C 6.769531 5.667969 7.367188 4.964844 7.335938 3.585938 C 8.503906 5.320312 8.121094 6.996094 7.507812 8.695312 Z M 7.507812 8.695312 "/>
<path style=" stroke:none;fill-rule:evenodd;fill:rgb(67.058824%,78.431373%,21.568627%);fill-opacity:1;" d="M 9.980469 8.898438 C 12.3125 6.449219 12.925781 5.445312 12.789062 2.824219 C 12.117188 4 11.757812 4.585938 10.625 5.957031 C 11.410156 4.152344 10.433594 3.28125 10.066406 0.890625 C 9.417969 3.207031 8.546875 3.53125 9.230469 5.980469 C 8.863281 4.914062 7.8125 4.515625 6.988281 2.90625 C 6.867188 5.699219 8.300781 7.363281 9.980469 8.898438 Z M 9.980469 8.898438 "/>
<path style=" stroke:none;fill-rule:evenodd;fill:rgb(100%,33.333333%,33.333333%);fill-opacity:1;" d="M 7.972656 17.65625 C 8.972656 18.964844 10.46875 19.796875 12.15625 17.65625 C 12.617188 17.074219 17.1875 10.335938 14.910156 7.703125 C 12.875 5.359375 7.015625 5.640625 5 8 C 2.734375 10.652344 7.582031 17.148438 7.972656 17.65625 Z M 7.972656 17.65625 "/>
<path style=" stroke:none;fill-rule:evenodd;fill:rgb(0%,0%,0%);fill-opacity:1;" d="M 7.191406 12.371094 C 7.304688 12.394531 7.300781 12.898438 7.539062 13.632812 C 7.679688 14.054688 7.863281 14.484375 8.121094 14.984375 C 8.132812 15.003906 8.140625 15.019531 8.148438 15.035156 C 8.421875 15.550781 8.679688 15.960938 8.941406 16.328125 C 9.375 16.917969 9.722656 17.214844 9.675781 17.3125 C 9.617188 17.425781 9.101562 17.261719 8.535156 16.671875 C 8.199219 16.328125 7.867188 15.882812 7.578125 15.335938 C 7.570312 15.320312 7.558594 15.300781 7.550781 15.285156 C 7.273438 14.75 7.097656 14.242188 7.011719 13.769531 C 6.839844 12.890625 7.070312 12.34375 7.191406 12.371094 Z M 7.191406 12.371094 "/>
<path style=" stroke:none;fill-rule:evenodd;fill:rgb(0%,0%,0%);fill-opacity:1;" d="M 14.152344 10.824219 C 14.152344 11.019531 13.992188 11.179688 13.796875 11.179688 C 13.597656 11.179688 13.4375 11.019531 13.4375 10.824219 C 13.4375 10.625 13.597656 10.464844 13.796875 10.464844 C 13.992188 10.464844 14.152344 10.625 14.152344 10.824219 Z M 14.152344 10.824219 "/>
<path style=" stroke:none;fill-rule:evenodd;fill:rgb(0%,0%,0%);fill-opacity:1;" d="M 13.109375 9.449219 C 13.109375 9.644531 12.949219 9.804688 12.75 9.804688 C 12.554688 9.804688 12.394531 9.644531 12.394531 9.449219 C 12.394531 9.25 12.554688 9.089844 12.75 9.089844 C 12.949219 9.089844 13.109375 9.25 13.109375 9.449219 Z M 13.109375 9.449219 "/>
<path style=" stroke:none;fill-rule:evenodd;fill:rgb(0%,0%,0%);fill-opacity:1;" d="M 14.785156 9.53125 C 14.785156 9.726562 14.625 9.886719 14.429688 9.886719 C 14.230469 9.886719 14.070312 9.726562 14.070312 9.53125 C 14.070312 9.332031 14.230469 9.171875 14.429688 9.171875 C 14.625 9.171875 14.785156 9.332031 14.785156 9.53125 Z M 14.785156 9.53125 "/>
<path style=" stroke:none;fill-rule:evenodd;fill:rgb(0%,0%,0%);fill-opacity:1;" d="M 13.632812 8.101562 C 13.632812 8.300781 13.472656 8.460938 13.273438 8.460938 C 13.078125 8.460938 12.917969 8.300781 12.917969 8.101562 C 12.917969 7.902344 13.078125 7.742188 13.273438 7.742188 C 13.472656 7.742188 13.632812 7.902344 13.632812 8.101562 Z M 13.632812 8.101562 "/>
<path style=" stroke:none;fill-rule:evenodd;fill:rgb(0%,0%,0%);fill-opacity:1;" d="M 5.816406 10.824219 C 5.816406 11.019531 5.976562 11.179688 6.171875 11.179688 C 6.371094 11.179688 6.53125 11.019531 6.53125 10.824219 C 6.53125 10.625 6.371094 10.464844 6.171875 10.464844 C 5.976562 10.464844 5.816406 10.625 5.816406 10.824219 Z M 5.816406 10.824219 "/>
<path style=" stroke:none;fill-rule:evenodd;fill:rgb(0%,0%,0%);fill-opacity:1;" d="M 6.859375 9.449219 C 6.859375 9.644531 7.019531 9.804688 7.21875 9.804688 C 7.414062 9.804688 7.574219 9.644531 7.574219 9.449219 C 7.574219 9.25 7.414062 9.089844 7.21875 9.089844 C 7.019531 9.089844 6.859375 9.25 6.859375 9.449219 Z M 6.859375 9.449219 "/>
<path style=" stroke:none;fill-rule:evenodd;fill:rgb(0%,0%,0%);fill-opacity:1;" d="M 5.183594 9.53125 C 5.183594 9.726562 5.34375 9.886719 5.539062 9.886719 C 5.738281 9.886719 5.898438 9.726562 5.898438 9.53125 C 5.898438 9.332031 5.738281 9.171875 5.539062 9.171875 C 5.34375 9.171875 5.183594 9.332031 5.183594 9.53125 Z M 5.183594 9.53125 "/>
<path style=" stroke:none;fill-rule:evenodd;fill:rgb(0%,0%,0%);fill-opacity:1;" d="M 6.335938 8.101562 C 6.335938 8.300781 6.496094 8.460938 6.695312 8.460938 C 6.894531 8.460938 7.050781 8.300781 7.050781 8.101562 C 7.050781 7.902344 6.894531 7.742188 6.695312 7.742188 C 6.496094 7.742188 6.335938 7.902344 6.335938 8.101562 Z M 6.335938 8.101562 "/>
</g>
</svg>
